# xmcd
#
# Track frame offsets:
#	150
#	11580
#	31423
#	47853
#	58220
#	75124
#	89102
#	102371
#	116157
#	135481
#	152848
#	169102
#	186480
#	202608
#
# Disc length: 2892 seconds
#
# Revision: 2
# Processed by: cddbd v1.5.1PL2 Copyright (c) Steve Scherf et al.
# Submitted via: audiograbber 1.83.01
#
DISCID=b80b4a0e
DTITLE=Daþâdi izpildîtâji - Country mûzikas izlase #2
DYEAR=2003
DGENRE=Country
TTITLE0=Juke Box - Manas atmiòas
TTITLE1=Dakota - Nakstauriòu karnevâls
TTITLE2=Klaidonis - Gaidot mâjâs
TTITLE3=Inâra Rubîna un Vidzemnieki - Tâ esmu es
TTITLE4=Aldis Rullis un Emburgas zçni - Sirds
TTITLE5=Tequila - 'râ tekila
TTITLE6=Sestâ jûdze - Mana mazâ karaïvalsts
TTITLE7=Juke Box - Katru dienu
TTITLE8=Dakota - Dþokonda
TTITLE9=Bordertown - Vecais hipijs
TTITLE10=Aldis Rullis un Emburgas zçni - Tik pret sauli
TTITLE11=Klaidonis - Ceru, gaidu
TTITLE12=Sestâ jûdze - Gan jau
TTITLE13=Inâra Rubîna un Vidzemnieki - Grçki
EXTD=
EXTT0=
EXTT1=
EXTT2=
EXTT3=
EXTT4=
EXTT5=
EXTT6=
EXTT7=
EXTT8=
EXTT9=
EXTT10=
EXTT11=
EXTT12=
EXTT13=
PLAYORDER=
